<svg width="32" height="32" xmlns="http://www.w3.org/2000/svg">
    <g fill="none" fill-rule="evenodd">
        <path d="M0 0h32v32H0z"/>
        <path d="M4 4h23.333v23.333H4z"/>
        <path d="m15.667 23.683-5.556 3.435a1.443 1.443 0 0 1-1.997-.488 1.49 1.49 0 0 1-.173-1.108l1.51-6.41-4.944-4.285a1.482 1.482 0 0 1-.158-2.073 1.45 1.45 0 0 1 .988-.509l6.489-.526 2.5-6.085a1.447 1.447 0 0 1 2.682.001l2.5 6.084 6.489.526c.8.065 1.396.774 1.332 1.583a1.476 1.476 0 0 1-.504.999l-4.944 4.286 1.51 6.41a1.472 1.472 0 0 1-1.074 1.77c-.374.09-.767.027-1.095-.176l-5.555-3.434z" fill="#00C4C4" fill-rule="nonzero"/>
    </g>
</svg>
